<svg xmlns="http://www.w3.org/2000/svg" width="77.308" height="91.467" viewBox="0 0 77.308 91.467">
    <path d="M91.356,74.482a49.171,49.171,0,0,1-4.863,8.743,44.418,44.418,0,0,1-6.264,7.57,12.151,12.151,0,0,1-8.05,3.545,20.178,20.178,0,0,1-7.436-1.775,21.337,21.337,0,0,0-8.006-1.77,22.061,22.061,0,0,0-8.232,1.77,22.15,22.15,0,0,1-7.114,1.87q-4.128.176-8.232-3.64a46.642,46.642,0,0,1-6.551-7.838,54.209,54.209,0,0,1-6.928-13.761,50.39,50.39,0,0,1-2.909-16.4A29.951,29.951,0,0,1,20.7,37.124a23.072,23.072,0,0,1,8.237-8.332,22.159,22.159,0,0,1,11.136-3.143,26.222,26.222,0,0,1,8.614,2c3.552,1.333,5.832,2.009,6.832,2.009.748,0,3.281-.791,7.576-2.367a25.041,25.041,0,0,1,10.3-1.828q11.414.921,17.128,9.018-10.208,6.185-10.1,17.308A19.093,19.093,0,0,0,86.688,66.18a20.6,20.6,0,0,0,6.264,4.109q-.754,2.186-1.6,4.193ZM73.9,5.808a19.294,19.294,0,0,1-4.946,12.656c-3.975,4.647-8.783,7.332-14,6.909a14.08,14.08,0,0,1-.1-1.714A19.824,19.824,0,0,1,60.1,10.87,20.2,20.2,0,0,1,66.5,6.07,19.059,19.059,0,0,1,73.809,4,16.427,16.427,0,0,1,73.9,5.808Z"
          transform="translate(-16.27 -3.475)" fill="#fff" stroke="#fff" stroke-width="1"/>
</svg>
