<svg xmlns="http://www.w3.org/2000/svg" width="94.672" height="84.933" viewBox="0 0 94.672 84.933">
    <path d="M70.707,78.188c-11.042,6.379-26.224,7.034-41.5.487A64.9,64.9,0,0,1,0,53.679a49.213,49.213,0,0,0,10.788,6.577c15.774,7.394,31.546,6.887,42.644.019a.119.119,0,0,1-.017-.019C37.628,48.152,24.208,32.364,14.21,19.472a45.035,45.035,0,0,1-5.264-7.1c12.1,11.051,31.314,25,38.154,28.945A281.149,281.149,0,0,1,20.26,7.63C43.153,30.786,64.468,43.943,64.468,43.943c.705.4,1.249.729,1.687,1.024a34.625,34.625,0,0,0,1.207-3.655C71.046,27.893,66.837,12.63,57.626,0c21.313,12.893,33.945,37.1,28.68,57.363q-.206.82-.447,1.616.092.11.185.227c10.524,13.157,7.63,27.1,6.315,24.471-5.709-11.172-16.278-7.756-21.651-5.489Z"
          transform="translate(0.424 0.428)" fill="#fff" stroke="#fff" stroke-width="1"/>
</svg>
